<svg version="1.1" id="Layer_1" xmlns="http://www.w3.org/2000/svg" x="0" y="0" viewBox="0 0 16 16" xml:space="preserve"><style>.st0{fill:#949494}</style><g id="Design"><g id="Contacts" transform="translate(-878 -164)"><g id="grid-45" transform="translate(878 164)"><path class="st0" d="M6.5 7h-6C.2 7 0 6.8 0 6.5v-6C0 .2.2 0 .5 0h6c.3 0 .5.2.5.5v6c0 .3-.2.5-.5.5zM1 6h5V1H1v5z" id="Path"/><path class="st0" d="M15.5 7h-6c-.3 0-.5-.2-.5-.5v-6c0-.3.2-.5.5-.5h6c.3 0 .5.2.5.5v6c0 .3-.2.5-.5.5zM10 6h5V1h-5v5z" id="Path_1_"/><path class="st0" d="M6.5 16h-6c-.3 0-.5-.2-.5-.5v-6c0-.3.2-.5.5-.5h6c.3 0 .5.2.5.5v6c0 .3-.2.5-.5.5zM1 15h5v-5H1v5z" id="Path_2_"/><path class="st0" d="M15.5 16h-6c-.3 0-.5-.2-.5-.5v-6c0-.3.2-.5.5-.5h6c.3 0 .5.2.5.5v6c0 .3-.2.5-.5.5zM10 15h5v-5h-5v5z" id="Path_3_"/></g></g></g></svg>