<svg version="1.1" id="Layer_1" xmlns="http://www.w3.org/2000/svg" x="0" y="0" viewBox="0 0 13 13" xml:space="preserve"><style>.st0{fill:#fff}</style><g id="Design"><g id="danh-ba-chi-tiet" transform="translate(-201 -163)"><g id="pencil" transform="translate(202 164)"><path transform="rotate(-45.001 8.5 2.5)" class="st0" d="M8 .4h1v4.2H8z" id="Path"/><path transform="rotate(-45.001 2.5 8.5)" class="st0" d="M2 6.4h1v4.2H2z" id="Path_1_"/><path class="st0" d="M-.6 11.6l.7-4.1L7.6 0c.6-.6 1.6-.6 2.2 0L11 1.2c.6.6.6 1.6 0 2.2l-7.5 7.5-4.1.7zm3.9-1.1zM1 8l-.4 2.4L3 10l7.3-7.3c.2-.2.2-.6 0-.8L9.1.7c-.2-.2-.6-.2-.8 0L1 8z" id="Path_2_"/></g></g></g></svg>